<svg width="50" height="24" viewBox="0 0 50 24" fill="none" xmlns="http://www.w3.org/2000/svg">
<path d="M3.31203 0.064209V9.65525C3.41575 9.55188 3.58791 9.44816 3.795 9.31022C4.03631 9.1377 4.51964 8.93061 5.24428 8.6893C5.96856 8.44799 6.7627 8.3097 7.55613 8.3097C9.69512 8.3097 11.4887 9.03434 12.938 10.5178C14.3873 11.9668 15.1116 13.7265 15.1116 15.8309C15.1116 17.9011 14.3873 19.6605 12.9034 21.1443C11.4549 22.6278 9.66054 23.3525 7.55613 23.3525C5.52051 23.3525 3.72656 22.6624 2.24271 21.3168C0.758859 19.9709 0 18.1082 0 15.7275V0.064209H3.31203ZM7.55578 11.4841C5.17477 11.4841 3.31203 13.3127 3.31203 15.8313C3.31203 18.3153 5.10633 20.1784 7.55578 20.1784C9.93608 20.1784 11.7992 18.3153 11.7992 15.8313C11.7992 13.3123 9.93608 11.4841 7.55578 11.4841Z" fill="#6F6EFF"/>
<path d="M46.6882 9.65525V0.064209H50.0002V15.7275C50.0002 18.1082 49.2407 19.9709 47.7575 21.3165C46.2737 22.662 44.4801 23.3521 42.4444 23.3521C40.34 23.3521 38.5457 22.6275 37.0626 21.144C35.6133 19.6605 34.8887 17.9007 34.8887 15.8306C34.8887 13.7261 35.6137 11.9664 37.0626 10.5175C38.5112 9.03398 40.3055 8.30935 42.4444 8.30935C44.0659 8.30935 45.5843 8.86147 46.2395 9.30987L46.6882 9.65525ZM42.4444 20.178C44.8939 20.178 46.6882 18.3149 46.6882 15.8309C46.6882 13.3123 44.8247 11.4838 42.4444 11.4838C40.0642 11.4838 38.2007 13.3123 38.2007 15.8309C38.2007 18.3149 40.0642 20.178 42.4444 20.178Z" fill="#6F6EFF"/>
<path d="M17.4443 8.39575H20.7564V15.9399L20.7631 16.6966C20.7631 19.0353 22.6611 20.6536 24.9998 20.6539C27.3384 20.6536 29.2365 19.0357 29.2365 16.6966L29.2432 15.9399V8.39575H32.5552V16.3315C32.5552 16.3548 32.5552 16.3777 32.5548 16.4006C32.5379 19.5278 30.3813 22.4443 27.3409 23.1757C26.6374 23.345 25.8486 23.4586 24.9991 23.4586C24.1499 23.4586 23.3614 23.3447 22.6583 23.1757C19.6179 22.4447 17.4613 19.5274 17.4443 16.4006V8.39575Z" fill="#6F6EFF"/>
</svg>
